{
  "accessors": [
    {
      "bufferView": 2,
      "componentType": 5126,
      "count": 230,
      "max": [
        1.8000000715255737,
        0.45714282989501953,
        0.08571425080299377
      ],
      "min": [
        -1.7071430683135986,
        -0.14999999105930328,
        -0.08571432530879974
      ],
      "type": "VEC3"
    },
    {
      "bufferView": 2,
      "byteOffset": 2760,
      "componentType": 5126,
      "count": 230,
      "max": [
        0.9963580965995789,
        1.0,
        0.9974321722984314
      ],
      "min": [
        -0.9986477494239807,
        -1.0,
        -0.9974321722984314
      ],
      "type": "VEC3"
    },
    {
      "bufferView": 1,
      "componentType": 5126,
      "count": 230,
      "max": [
        0.8707349300384521,
        0.9835408329963684
      ],
      "min": [
        0.01645915023982525,
        0.01645912602543831
      ],
      "type": "VEC2"
    },
    {
      "bufferView": 0,
      "componentType": 5125,
      "count": 420,
      "type": "SCALAR"
    }
  ],
  "asset": {
    "extras": {
      "author": "SketchyBot (https://sketchfab.com/SketchyB0t_3D_Fabrication)",
      "license": "SKETCHFAB Standard (https://sketchfab.com/licenses)",
      "source": "https://sketchfab.com/3d-models/crowbar-v2-dfb5981c576d4fd9b3fa6870d745abe3",
      "title": "Crowbar V2"
    },
    "generator": "Sketchfab-16.16.0",
    "version": "2.0"
  },
  "bufferViews": [
    {
      "buffer": 0,
      "byteLength": 1680,
      "name": "floatBufferViews",
      "target": 34963
    },
    {
      "buffer": 0,
      "byteLength": 1840,
      "byteOffset": 1680,
      "byteStride": 8,
      "name": "floatBufferViews",
      "target": 34962
    },
    {
      "buffer": 0,
      "byteLength": 5520,
      "byteOffset": 3520,
      "byteStride": 12,
      "name": "floatBufferViews",
      "target": 34962
    }
  ],
  "buffers": [
    {
      "byteLength": 9040,
      "uri": "scene.bin"
    }
  ],
  "images": [
    {
      "uri": "textures/Crowbar_baseColor.png"
    }
  ],
  "materials": [
    {
      "doubleSided": true,
      "name": "Crowbar",
      "pbrMetallicRoughness": {
        "baseColorTexture": {
          "index": 0
        },
        "metallicFactor": 0.0,
        "roughnessFactor": 0.4678109495190842
      }
    }
  ],
  "meshes": [
    {
      "name": "Crowbar_Crowbar_0",
      "primitives": [
        {
          "attributes": {
            "NORMAL": 1,
            "POSITION": 0,
            "TEXCOORD_0": 2
          },
          "indices": 3,
          "material": 0,
          "mode": 4
        }
      ]
    }
  ],
  "nodes": [
    {
      "children": [
        1
      ],
      "matrix": [
        0.06744009256362915,
        -0.0416187644004824,
        0.9968549013137817,
        0.0,
        -0.33902138471603394,
        -0.9406368136405945,
        -0.0163358859717848,
        0.0,
        0.9383583068847656,
        -0.33685341477394104,
        -0.0775462910532952,
        0.0,
        0.0,
        0.0,
        0.0,
        1.0
      ],
      "name": "Sketchfab_model"
    },
    {
      "children": [
        2
      ],
      "matrix": [
        0.009999999776482582,
        0.0,
        0.0,
        0.0,
        0.0,
        -0.009999999776482582,
        0.0,
        0.0,
        0.0,
        0.0,
        -0.009999999776482582,
        0.0,
        0.0,
        0.0,
        0.0,
        1.0
      ],
      "name": "3f97f52ad3b147ec9ac487e3d6b2742a.fbx"
    },
    {
      "children": [
        3
      ],
      "name": "RootNode"
    },
    {
      "children": [
        4
      ],
      "matrix": [
        -7.983113922572996e-06,
        -49.00000381469662,
        -4.1560249502175026e-07,
        0.0,
        49.000003814695965,
        -7.983113857291877e-06,
        -7.983114880029378e-06,
        0.0,
        7.983114812319031e-06,
        -4.156037956362394e-07,
        49.00000381469661,
        0.0,
        4.470348358154297e-06,
        -6.705522537231445e-06,
        1.4901161193847656e-06,
        1.0
      ],
      "name": "Crowbar"
    },
    {
      "mesh": 0,
      "name": "Crowbar_Crowbar_0"
    }
  ],
  "samplers": [
    {
      "magFilter": 9728,
      "minFilter": 9986,
      "wrapS": 10497,
      "wrapT": 10497
    }
  ],
  "scene": 0,
  "scenes": [
    {
      "name": "Sketchfab_Scene",
      "nodes": [
        0
      ]
    }
  ],
  "textures": [
    {
      "sampler": 0,
      "source": 0
    }
  ]
}
